<svg xmlns="http://www.w3.org/2000/svg" xmlns:xlink="http://www.w3.org/1999/xlink" version="1.1" width="320" height="105" viewBox="0 0 320 105" xml:space="preserve"><g transform="matrix(1.07991361618042,0,0,1.07991361618042,-3.9956771157790296,-1.579374422800454)" fill="#355c7d"><polygon xmlns="http://www.w3.org/2000/svg" points="54,40.7 59.8,44.3 52.2,52.3 42,45.4 26.5,63.2 32,68 43.3,55.1 53.2,61.8 66.1,48.3 72.3,52.1   71.1,34.9 "></polygon><path xmlns="http://www.w3.org/2000/svg" d="M94.2,50.2c-1.1,0-2,0.9-2,2c0,23.3-18.9,42.2-42.2,42.2S7.7,75.5,7.7,52.3C7.7,30,25,11.7,47,10.1l-1.8,1.4  c-0.9,0.7-1.1,2-0.4,2.9c0.4,0.5,1,0.8,1.6,0.8c0.4,0,0.9-0.1,1.2-0.4l6.8-5.2c0.5-0.4,0.8-1,0.8-1.7c0-0.7-0.4-1.3-0.9-1.6  l-6.8-4.5c-0.9-0.6-2.2-0.4-2.8,0.6c-0.6,0.9-0.4,2.2,0.6,2.8l1.4,0.9c-24,1.7-43,21.8-43,46.2c0,25.5,20.8,46.3,46.3,46.3  s46.3-20.8,46.3-46.3C96.2,51.1,95.3,50.2,94.2,50.2z"></path><circle xmlns="http://www.w3.org/2000/svg" cx="92.7" cy="41.5" r="2.5"></circle><circle xmlns="http://www.w3.org/2000/svg" cx="89.4" cy="32.2" r="2.5"></circle><circle xmlns="http://www.w3.org/2000/svg" cx="83.4" cy="23.5" r="2.5"></circle><circle xmlns="http://www.w3.org/2000/svg" cx="75.1" cy="16" r="2.5"></circle><circle xmlns="http://www.w3.org/2000/svg" cx="65.2" cy="10.8" r="2.5"></circle></g><g transform="matrix(5.531126499176025,0,0,5.531126499176025,118.34066235778229,-13.243924246204582)" fill="#355c7d"><path d="M10.13 9.93 q1.33 1.07 1.33 2.99 l0 7.08 l-4.42 0 l0 -1.18 q-1 1.38 -3.08 1.38 q-1.72 0 -2.69 -0.93 t-0.97 -2.51 q0 -1.62 1.08 -2.46 t3.16 -0.88 l2.5 0 q-0.02 -0.58 -0.45 -0.89 t-1.25 -0.31 q-0.64 0 -1.53 0.18 t-1.79 0.52 l-1 -3 q1.4 -0.52 2.79 -0.79 t2.61 -0.27 q2.38 0 3.71 1.07 z M6.37 17.12 q0.41 -0.22 0.67 -0.62 l0 -1 l-1.56 0 q-0.96 0 -0.96 0.88 q0 0.46 0.26 0.71 t0.74 0.25 q0.44 0 0.85 -0.22 z M19.7595 9.33 q0.85 -0.47 1.91 -0.47 l0 4.06 q-0.44 -0.06 -0.86 -0.06 q-1.16 0 -1.82 0.51 t-0.66 1.41 l0 5.22 l-4.5 0 l0 -10.94 l4.5 0 l0 1.6 q0.58 -0.86 1.43 -1.33 z M28.988999999999997 8.69 q-0.27 0.25 -0.27 0.67 l0 0.3 l2.12 0 l0 2.84 l-2.12 0 l0 7.5 l-4.48 0 l0 -7.5 l-1.5 0 l0 -2.84 l1.5 0 l0 -0.98 q0 -1.7 1.22 -2.71 t3.26 -1.01 q1.34 0 2.6 0.38 l-0.44 3.32 q-0.8 -0.22 -1.18 -0.22 q-0.44 0 -0.71 0.25 z M31.958999999999996 9.06 l4.5 0 l0 10.94 l-4.5 0 l0 -10.94 z M35.799 4.300000000000001 q0.64 0.64 0.64 1.64 t-0.64 1.64 t-1.64 0.64 t-1.64 -0.64 t-0.64 -1.64 t0.64 -1.64 t1.64 -0.64 t1.64 0.64 z"></path></g></svg>